<svg xmlns="http://www.w3.org/2000/svg" viewBox="0 0 760 280" role="img" aria-labelledby="title"><title id="title">A × 5  |  B × 3  |  A × 2</title><rect width="760" height="280" fill="#ffffff"/><g font-family="Arial, sans-serif"><text x="25" y="36" font-size="24" fill="#17253b" text-anchor="start">A × 5  |  B × 3  |  A × 2</text><rect x="25" y="90" width="63" height="52" rx="5" fill="#f1f5f9" stroke="#64748b"/><text x="56" y="123" font-size="22" fill="#17253b" text-anchor="middle">A</text><text x="56" y="168" font-size="16" fill="#17253b" text-anchor="middle">1</text><rect x="94" y="90" width="63" height="52" rx="5" fill="#f1f5f9" stroke="#64748b"/><text x="125" y="123" font-size="22" fill="#17253b" text-anchor="middle">A</text><text x="125" y="168" font-size="16" fill="#17253b" text-anchor="middle">2</text><rect x="163" y="90" width="63" height="52" rx="5" fill="#dbeafe" stroke="#64748b"/><text x="194" y="123" font-size="22" fill="#17253b" text-anchor="middle">A</text><text x="194" y="168" font-size="16" fill="#17253b" text-anchor="middle">3</text><rect x="232" y="90" width="63" height="52" rx="5" fill="#dbeafe" stroke="#64748b"/><text x="263" y="123" font-size="22" fill="#17253b" text-anchor="middle">A</text><text x="263" y="168" font-size="16" fill="#17253b" text-anchor="middle">4</text><rect x="301" y="90" width="63" height="52" rx="5" fill="#dbeafe" stroke="#64748b"/><text x="332" y="123" font-size="22" fill="#17253b" text-anchor="middle">A</text><text x="332" y="168" font-size="16" fill="#17253b" text-anchor="middle">5</text><rect x="370" y="90" width="63" height="52" rx="5" fill="#dbeafe" stroke="#64748b"/><text x="401" y="123" font-size="22" fill="#17253b" text-anchor="middle">B</text><text x="401" y="168" font-size="16" fill="#17253b" text-anchor="middle">6</text><rect x="439" y="90" width="63" height="52" rx="5" fill="#dbeafe" stroke="#64748b"/><text x="470" y="123" font-size="22" fill="#17253b" text-anchor="middle">B</text><text x="470" y="168" font-size="16" fill="#17253b" text-anchor="middle">7</text><rect x="508" y="90" width="63" height="52" rx="5" fill="#dbeafe" stroke="#64748b"/><text x="539" y="123" font-size="22" fill="#17253b" text-anchor="middle">B</text><text x="539" y="168" font-size="16" fill="#17253b" text-anchor="middle">8</text><rect x="577" y="90" width="63" height="52" rx="5" fill="#dbeafe" stroke="#64748b"/><text x="608" y="123" font-size="22" fill="#17253b" text-anchor="middle">A</text><text x="608" y="168" font-size="16" fill="#17253b" text-anchor="middle">9</text><rect x="646" y="90" width="63" height="52" rx="5" fill="#f1f5f9" stroke="#64748b"/><text x="677" y="123" font-size="22" fill="#17253b" text-anchor="middle">A</text><text x="677" y="168" font-size="16" fill="#17253b" text-anchor="middle">10</text><text x="25" y="210" font-size="19" fill="#17253b" text-anchor="start">L = 3, R = 9  →  [3, 9]</text><text x="25" y="248" font-size="18" fill="#17253b" text-anchor="start">1 ≤ L ≤ R ≤ length</text></g></svg>